<mxfile host="app.diagrams.net" agent="Mozilla/5.0 (Windows NT 10.0; Win64; x64) AppleWebKit/537.36 (KHTML, like Gecko) Chrome/135.0.0.0 Safari/537.36 Edg/135.0.0.0" version="26.2.10">
  <diagram name="Page-1" id="MNgap9OzmF2XqjjjabuJ">
    <mxGraphModel dx="1207" dy="753" grid="1" gridSize="10" guides="1" tooltips="1" connect="1" arrows="1" fold="1" page="1" pageScale="1" pageWidth="1654" pageHeight="2336" math="0" shadow="0">
      <root>
        <mxCell id="0" />
        <mxCell id="1" parent="0" />
        <mxCell id="o7Av_bA0d3k9S3VA18wf-1" value="Quy trình bán hàng" style="shape=umlFrame;whiteSpace=wrap;html=1;pointerEvents=0;" vertex="1" parent="1">
          <mxGeometry x="170" y="90" width="1590" height="860" as="geometry" />
        </mxCell>
        <mxCell id="o7Av_bA0d3k9S3VA18wf-2" value="" style="shape=umlLifeline;perimeter=lifelinePerimeter;whiteSpace=wrap;html=1;container=1;dropTarget=0;collapsible=0;recursiveResize=0;outlineConnect=0;portConstraint=eastwest;newEdgeStyle={&quot;curved&quot;:0,&quot;rounded&quot;:0};participant=umlActor;size=40;" vertex="1" parent="1">
          <mxGeometry x="245" y="180" width="20" height="800" as="geometry" />
        </mxCell>
        <mxCell id="o7Av_bA0d3k9S3VA18wf-3" value="Nhân viên bán hàng" style="text;html=1;align=center;verticalAlign=middle;resizable=0;points=[];autosize=1;strokeColor=none;fillColor=none;" vertex="1" parent="1">
          <mxGeometry x="190" y="140" width="130" height="30" as="geometry" />
        </mxCell>
        <mxCell id="o7Av_bA0d3k9S3VA18wf-4" value="Giao diện chương&amp;nbsp; trình" style="shape=umlLifeline;perimeter=lifelinePerimeter;whiteSpace=wrap;html=1;container=1;dropTarget=0;collapsible=0;recursiveResize=0;outlineConnect=0;portConstraint=eastwest;newEdgeStyle={&quot;curved&quot;:0,&quot;rounded&quot;:0};" vertex="1" parent="1">
          <mxGeometry x="440" y="180" width="100" height="830" as="geometry" />
        </mxCell>
        <mxCell id="o7Av_bA0d3k9S3VA18wf-9" value="" style="html=1;points=[[0,0,0,0,5],[0,1,0,0,-5],[1,0,0,0,5],[1,1,0,0,-5]];perimeter=orthogonalPerimeter;outlineConnect=0;targetShapes=umlLifeline;portConstraint=eastwest;newEdgeStyle={&quot;curved&quot;:0,&quot;rounded&quot;:0};" vertex="1" parent="o7Av_bA0d3k9S3VA18wf-4">
          <mxGeometry x="45" y="90" width="10" height="120" as="geometry" />
        </mxCell>
        <mxCell id="o7Av_bA0d3k9S3VA18wf-5" value="Giao diện bán hàng" style="shape=umlLifeline;perimeter=lifelinePerimeter;whiteSpace=wrap;html=1;container=1;dropTarget=0;collapsible=0;recursiveResize=0;outlineConnect=0;portConstraint=eastwest;newEdgeStyle={&quot;curved&quot;:0,&quot;rounded&quot;:0};" vertex="1" parent="1">
          <mxGeometry x="680" y="180" width="100" height="830" as="geometry" />
        </mxCell>
        <mxCell id="o7Av_bA0d3k9S3VA18wf-10" value="" style="html=1;points=[[0,0,0,0,5],[0,1,0,0,-5],[1,0,0,0,5],[1,1,0,0,-5]];perimeter=orthogonalPerimeter;outlineConnect=0;targetShapes=umlLifeline;portConstraint=eastwest;newEdgeStyle={&quot;curved&quot;:0,&quot;rounded&quot;:0};" vertex="1" parent="o7Av_bA0d3k9S3VA18wf-5">
          <mxGeometry x="45" y="100" width="10" height="100" as="geometry" />
        </mxCell>
        <mxCell id="o7Av_bA0d3k9S3VA18wf-17" value="" style="html=1;points=[[0,0,0,0,5],[0,1,0,0,-5],[1,0,0,0,5],[1,1,0,0,-5]];perimeter=orthogonalPerimeter;outlineConnect=0;targetShapes=umlLifeline;portConstraint=eastwest;newEdgeStyle={&quot;curved&quot;:0,&quot;rounded&quot;:0};" vertex="1" parent="o7Av_bA0d3k9S3VA18wf-5">
          <mxGeometry x="45" y="230" width="10" height="80" as="geometry" />
        </mxCell>
        <mxCell id="o7Av_bA0d3k9S3VA18wf-6" value="Xử lý bán hàng" style="shape=umlLifeline;perimeter=lifelinePerimeter;whiteSpace=wrap;html=1;container=1;dropTarget=0;collapsible=0;recursiveResize=0;outlineConnect=0;portConstraint=eastwest;newEdgeStyle={&quot;curved&quot;:0,&quot;rounded&quot;:0};" vertex="1" parent="1">
          <mxGeometry x="930" y="180" width="100" height="840" as="geometry" />
        </mxCell>
        <mxCell id="o7Av_bA0d3k9S3VA18wf-11" value="" style="html=1;points=[[0,0,0,0,5],[0,1,0,0,-5],[1,0,0,0,5],[1,1,0,0,-5]];perimeter=orthogonalPerimeter;outlineConnect=0;targetShapes=umlLifeline;portConstraint=eastwest;newEdgeStyle={&quot;curved&quot;:0,&quot;rounded&quot;:0};" vertex="1" parent="o7Av_bA0d3k9S3VA18wf-6">
          <mxGeometry x="45" y="240" width="10" height="90" as="geometry" />
        </mxCell>
        <mxCell id="o7Av_bA0d3k9S3VA18wf-8" value="Hóa đơn bán hầng" style="shape=umlLifeline;perimeter=lifelinePerimeter;whiteSpace=wrap;html=1;container=1;dropTarget=0;collapsible=0;recursiveResize=0;outlineConnect=0;portConstraint=eastwest;newEdgeStyle={&quot;curved&quot;:0,&quot;rounded&quot;:0};" vertex="1" parent="1">
          <mxGeometry x="1190" y="180" width="100" height="840" as="geometry" />
        </mxCell>
        <mxCell id="o7Av_bA0d3k9S3VA18wf-22" value="" style="html=1;points=[[0,0,0,0,5],[0,1,0,0,-5],[1,0,0,0,5],[1,1,0,0,-5]];perimeter=orthogonalPerimeter;outlineConnect=0;targetShapes=umlLifeline;portConstraint=eastwest;newEdgeStyle={&quot;curved&quot;:0,&quot;rounded&quot;:0};" vertex="1" parent="o7Av_bA0d3k9S3VA18wf-8">
          <mxGeometry x="45" y="265" width="10" height="80" as="geometry" />
        </mxCell>
        <mxCell id="o7Av_bA0d3k9S3VA18wf-19" value="gửi mã đơn hàng" style="html=1;verticalAlign=bottom;endArrow=block;curved=0;rounded=0;entryX=0.557;entryY=0.426;entryDx=0;entryDy=0;entryPerimeter=0;" edge="1" parent="1" source="o7Av_bA0d3k9S3VA18wf-5" target="o7Av_bA0d3k9S3VA18wf-6">
          <mxGeometry width="80" relative="1" as="geometry">
            <mxPoint x="720" y="450" as="sourcePoint" />
            <mxPoint x="800" y="450" as="targetPoint" />
          </mxGeometry>
        </mxCell>
        <mxCell id="o7Av_bA0d3k9S3VA18wf-21" value="tạp hóa đơn" style="html=1;verticalAlign=bottom;endArrow=block;curved=0;rounded=0;entryX=0.548;entryY=0.409;entryDx=0;entryDy=0;entryPerimeter=0;" edge="1" parent="1" source="o7Av_bA0d3k9S3VA18wf-6" target="o7Av_bA0d3k9S3VA18wf-8">
          <mxGeometry width="80" relative="1" as="geometry">
            <mxPoint x="720" y="450" as="sourcePoint" />
            <mxPoint x="800" y="450" as="targetPoint" />
          </mxGeometry>
        </mxCell>
        <mxCell id="o7Av_bA0d3k9S3VA18wf-23" value="frame" style="shape=umlFrame;whiteSpace=wrap;html=1;pointerEvents=0;" vertex="1" parent="1">
          <mxGeometry x="210" y="580" width="1090" height="220" as="geometry" />
        </mxCell>
        <mxCell id="o7Av_bA0d3k9S3VA18wf-24" value="yêu cầu giao diện bán hàng" style="html=1;verticalAlign=bottom;endArrow=block;curved=0;rounded=0;entryX=0.172;entryY=0.143;entryDx=0;entryDy=0;entryPerimeter=0;" edge="1" parent="1" source="o7Av_bA0d3k9S3VA18wf-2" target="o7Av_bA0d3k9S3VA18wf-9">
          <mxGeometry width="80" relative="1" as="geometry">
            <mxPoint x="800" y="320" as="sourcePoint" />
            <mxPoint x="1036" y="320" as="targetPoint" />
          </mxGeometry>
        </mxCell>
        <mxCell id="o7Av_bA0d3k9S3VA18wf-25" value="gọi giao diện bán hàng" style="html=1;verticalAlign=bottom;endArrow=block;curved=0;rounded=0;entryX=0.635;entryY=0.237;entryDx=0;entryDy=0;entryPerimeter=0;" edge="1" parent="1" source="o7Av_bA0d3k9S3VA18wf-4" target="o7Av_bA0d3k9S3VA18wf-10">
          <mxGeometry width="80" relative="1" as="geometry">
            <mxPoint x="820" y="310" as="sourcePoint" />
            <mxPoint x="1063" y="310" as="targetPoint" />
          </mxGeometry>
        </mxCell>
        <mxCell id="o7Av_bA0d3k9S3VA18wf-26" value="hiện giao diện bán hàng" style="html=1;verticalAlign=bottom;endArrow=open;dashed=1;endSize=8;curved=0;rounded=0;entryX=0.459;entryY=0.186;entryDx=0;entryDy=0;entryPerimeter=0;" edge="1" parent="1" source="o7Av_bA0d3k9S3VA18wf-5" target="o7Av_bA0d3k9S3VA18wf-4">
          <mxGeometry relative="1" as="geometry">
            <mxPoint x="997" y="370" as="sourcePoint" />
            <mxPoint x="760" y="370" as="targetPoint" />
          </mxGeometry>
        </mxCell>
        <mxCell id="o7Av_bA0d3k9S3VA18wf-27" value="giao diện bán hàng" style="html=1;verticalAlign=bottom;endArrow=open;dashed=1;endSize=8;curved=0;rounded=0;entryX=0.64;entryY=0.235;entryDx=0;entryDy=0;entryPerimeter=0;" edge="1" parent="1" source="o7Av_bA0d3k9S3VA18wf-4" target="o7Av_bA0d3k9S3VA18wf-2">
          <mxGeometry relative="1" as="geometry">
            <mxPoint x="820" y="350" as="sourcePoint" />
            <mxPoint x="588" y="350" as="targetPoint" />
          </mxGeometry>
        </mxCell>
        <mxCell id="o7Av_bA0d3k9S3VA18wf-28" value="nhập mã số đơn hàng" style="html=1;verticalAlign=bottom;endArrow=block;curved=0;rounded=0;entryX=0.563;entryY=0.298;entryDx=0;entryDy=0;entryPerimeter=0;" edge="1" parent="1" source="o7Av_bA0d3k9S3VA18wf-2" target="o7Av_bA0d3k9S3VA18wf-5">
          <mxGeometry width="80" relative="1" as="geometry">
            <mxPoint x="800" y="430" as="sourcePoint" />
            <mxPoint x="1275" y="430" as="targetPoint" />
          </mxGeometry>
        </mxCell>
      </root>
    </mxGraphModel>
  </diagram>
</mxfile>
